<?xml version="1.0" encoding="iso-8859-1"?>
<!-- Uploaded to: SVG Repo, www.svgrepo.com, Generator: SVG Repo Mixer Tools -->
<svg height="800px" width="800px" version="1.1" id="Layer_1" xmlns="http://www.w3.org/2000/svg" xmlns:xlink="http://www.w3.org/1999/xlink" 
	 viewBox="0 0 512 512" xml:space="preserve">
<path style="fill:#88CC2A;" d="M256.077,494.931h0.112H256.077z"/>
<path style="fill:#36D9D9;" d="M272.955,239.312v266.543c-5.274,0.634-27.601,0.742-34.025,0V239.312
	c0-9.445,7.623-17.069,17.069-17.069S272.955,229.867,272.955,239.312z"/>
<path style="fill:#43BFBF;" d="M272.955,505.854V239.312c0-9.445-7.509-17.069-16.956-17.069V506.31
	C261.388,506.31,267.912,506.46,272.955,505.854z"/>
<path style="fill:#FFE14D;" d="M315.148,91.036c1.603-4.565,1.339-21.136-1.295-25.643L285.46,16.886C279.27,6.312,268.246,0,256,0
	c-12.247,0-23.27,6.312-29.471,16.892l-28.382,48.502c-2.633,4.506-2.897,21.077-1.295,25.643H315.148z"/>
<path style="fill:#FFCC33;" d="M315.148,91.036c1.603-4.565,1.339-21.136-1.295-25.643L285.46,16.886C279.27,6.312,268.246,0,256,0
	v91.036H315.148z"/>
<path style="fill:#F26D76;" d="M256,256.39c-65.888,0-119.485-53.602-119.485-119.485V66.383c0-12.613,6.912-24.149,18.025-30.099
	c11.123-5.946,24.559-5.312,35.05,1.694L256,82.251l66.41-44.273c10.502-7.001,23.823-7.64,34.936-1.694
	c11.113,5.95,18.025,17.486,18.025,30.099v70.522C375.371,202.787,321.584,256.39,256,256.39z"/>
<path style="fill:#E65C64;" d="M375.371,136.905V66.383c0-12.613-6.912-24.149-18.025-30.099
	c-11.113-5.946-24.434-5.306-34.936,1.694L256,82.251v174.138C321.584,256.39,375.371,202.787,375.371,136.905z"/>
<path style="fill:#43BFBF;" d="M426.124,360.845c-3.395,38.75-21.78,75.476-48.591,102.075C345.497,494.708,304.819,512,256.001,512
	c-0.114-2.731-0.114-5.462,0.114-8.079c0.704-42.895,18.816-82.883,49.047-113.374c27.831-28.052,65.347-45.491,102.756-48.704
	C418.499,340.931,427.034,350.262,426.124,360.845z"/>
<path style="fill:#36D9D9;" d="M256.113,503.921c0.114,2.617,0.114,5.348,0,8.079c-50.205,0-90.549-18.093-121.532-49.08
	c-26.933-26.512-45.267-63.347-48.704-102.188c-0.912-10.584,7.623-19.802,18.207-18.89c37.111,2.96,74.931,20.544,102.87,48.704
	C236.226,420.071,255.398,460.686,256.113,503.921z"/>
</svg>